<svg width="276" height="276" viewBox="0 0 276 276" fill="none" xmlns="http://www.w3.org/2000/svg">
<path d="M269.158 121.577L247.402 96.0498C245.748 94.1159 244.751 91.7068 244.555 89.1697L241.885 55.7373C241.44 49.9022 238.92 44.4194 234.782 40.2814C230.644 36.1434 225.161 33.6238 219.326 33.1787L185.894 30.5115C183.355 30.3136 180.944 29.3156 179.009 27.6609L153.484 5.90685C149.043 2.09541 143.385 0 137.533 0C131.681 0 126.022 2.09541 121.581 5.90685L96.0565 27.658C94.1215 29.3139 91.7108 30.3127 89.1717 30.5104L55.7393 33.1752C49.9039 33.6203 44.4208 36.1398 40.2823 40.2778C36.1439 44.4157 33.6236 49.8985 33.1778 55.7338L30.5135 89.1645C30.3152 91.7031 29.3161 94.1132 27.66 96.0475L5.90705 121.577C2.09546 126.019 0 131.678 0 137.531C0 143.383 2.09546 149.043 5.90705 153.484L27.6635 179.012C29.3173 180.945 30.3143 183.355 30.5106 185.892L33.1807 219.324C33.6257 225.159 36.1453 230.642 40.2833 234.78C44.4213 238.918 49.9042 241.438 55.7393 241.883L89.1717 244.55C91.7104 244.748 94.1209 245.746 96.0565 247.4L121.581 269.155C126.022 272.967 131.681 275.062 137.533 275.062C143.385 275.062 149.043 272.967 153.484 269.155L179.009 247.404C180.944 245.748 183.355 244.749 185.894 244.552L219.326 241.884C225.161 241.439 230.643 238.919 234.781 234.781C238.919 230.643 241.439 225.161 241.885 219.326L244.549 185.895C244.747 183.356 245.746 180.946 247.402 179.012L269.155 153.486C272.968 149.045 275.064 143.385 275.065 137.532C275.065 131.679 272.97 126.019 269.158 121.577Z" fill="#47B900"/>
<path d="M118.783 106.281H103.157C101.5 106.281 99.9103 106.94 98.7383 108.112C97.5664 109.284 96.9079 110.873 96.9077 112.531V162.531C96.9237 164.178 97.5892 165.753 98.7595 166.912C99.9299 168.071 101.51 168.721 103.158 168.721C104.805 168.721 106.385 168.071 107.556 166.912C108.726 165.753 109.392 164.178 109.408 162.531V147.023L126.58 166.652C127.119 167.274 127.776 167.784 128.512 168.153C129.249 168.521 130.052 168.739 130.874 168.796C131.695 168.853 132.52 168.747 133.301 168.484C134.081 168.221 134.802 167.806 135.422 167.264C136.042 166.721 136.548 166.062 136.912 165.323C137.276 164.584 137.491 163.78 137.543 162.958C137.595 162.136 137.484 161.312 137.217 160.532C136.95 159.753 136.531 159.035 135.985 158.418L122.801 143.351C127.323 142.366 131.32 139.743 134.024 135.988C136.728 132.233 137.948 127.611 137.449 123.01C136.951 118.41 134.768 114.156 131.322 111.068C127.876 107.98 123.41 106.275 118.783 106.281ZM118.783 131.281H109.408V118.78H118.783C119.608 118.772 120.428 118.928 121.193 119.239C121.958 119.549 122.654 120.008 123.241 120.589C123.828 121.171 124.294 121.862 124.612 122.625C124.93 123.387 125.093 124.205 125.093 125.03C125.093 125.856 124.93 126.674 124.612 127.436C124.294 128.198 123.828 128.89 123.241 129.471C122.654 130.052 121.958 130.512 121.193 130.822C120.428 131.133 119.608 131.288 118.783 131.28V131.281Z" fill="white"/>
<path d="M171.908 118.781C173.555 118.765 175.129 118.1 176.288 116.929C177.447 115.759 178.097 114.178 178.097 112.531C178.097 110.884 177.447 109.303 176.288 108.133C175.129 106.963 173.555 106.297 171.908 106.281H150.032C148.375 106.281 146.785 106.94 145.613 108.112C144.441 109.284 143.783 110.873 143.783 112.531V162.531C143.783 164.189 144.441 165.778 145.613 166.95C146.785 168.122 148.375 168.781 150.032 168.781H171.908C173.555 168.765 175.129 168.099 176.288 166.929C177.447 165.759 178.097 164.178 178.097 162.531C178.097 160.884 177.447 159.303 176.288 158.133C175.129 156.962 173.555 156.297 171.908 156.281H156.283V143.782H168.782C170.44 143.782 172.03 143.123 173.202 141.951C174.374 140.779 175.033 139.189 175.033 137.532C175.033 135.874 174.374 134.284 173.202 133.112C172.03 131.94 170.44 131.281 168.782 131.281H156.283V118.781H171.908Z" fill="white"/>
<path d="M84.4075 106.281H62.5327C60.8751 106.281 59.2854 106.94 58.1133 108.112C56.9412 109.284 56.2826 110.873 56.2825 112.531V162.531C56.2825 164.189 56.941 165.779 58.1131 166.951C59.2852 168.123 60.875 168.781 62.5327 168.781C64.1903 168.781 65.7801 168.123 66.9522 166.951C68.1244 165.779 68.7829 164.189 68.7829 162.531V143.781H81.2827C82.9403 143.781 84.5301 143.123 85.7022 141.951C86.8744 140.778 87.5329 139.189 87.5329 137.531C87.5329 135.873 86.8744 134.284 85.7022 133.111C84.5301 131.939 82.9403 131.281 81.2827 131.281H68.7829V118.78H84.4075C85.2333 118.788 86.0525 118.633 86.8178 118.322C87.5831 118.012 88.2793 117.553 88.8661 116.971C89.4529 116.39 89.9187 115.699 90.2366 114.936C90.5545 114.174 90.7182 113.356 90.7182 112.53C90.7182 111.705 90.5545 110.887 90.2366 110.125C89.9187 109.362 89.4529 108.671 88.8661 108.09C88.2793 107.508 87.5831 107.049 86.8178 106.739C86.0525 106.428 85.2333 106.273 84.4075 106.281Z" fill="white"/>
<path d="M212.533 118.78C213.359 118.788 214.178 118.633 214.943 118.322C215.708 118.012 216.405 117.553 216.991 116.971C217.578 116.39 218.044 115.699 218.362 114.936C218.68 114.174 218.843 113.356 218.843 112.53C218.843 111.705 218.68 110.887 218.362 110.125C218.044 109.362 217.578 108.671 216.991 108.09C216.405 107.508 215.708 107.049 214.943 106.739C214.178 106.428 213.359 106.273 212.533 106.281H190.658C189 106.281 187.41 106.939 186.238 108.111C185.066 109.283 184.408 110.873 184.408 112.531V162.531C184.408 164.189 185.066 165.778 186.239 166.95C187.411 168.122 189 168.781 190.658 168.781H212.533C214.19 168.781 215.78 168.122 216.952 166.95C218.124 165.778 218.783 164.188 218.783 162.531C218.783 160.873 218.124 159.283 216.952 158.111C215.78 156.939 214.19 156.28 212.533 156.28H196.908V143.781H209.408C211.066 143.781 212.655 143.123 213.827 141.951C215 140.778 215.658 139.189 215.658 137.531C215.658 135.873 215 134.284 213.827 133.111C212.655 131.939 211.066 131.281 209.408 131.281H196.908V118.78H212.533Z" fill="white"/>
</svg>
