<svg width="24" height="24" viewBox="0 0 24 24" fill="none" xmlns="http://www.w3.org/2000/svg">
<path d="M18 9C18 9.53043 17.6839 10.0391 17.1213 10.4142C16.5587 10.7893 15.7956 11 15 11H3C2.20435 11 1.44129 10.7893 0.878679 10.4142C0.316071 10.0391 0 9.53043 0 9C0 8.46957 0.316071 7.96086 0.878679 7.58579C1.44129 7.21071 2.20435 7 3 7H15C15.7956 7 16.5587 7.21071 17.1213 7.58579C17.6839 7.96086 18 8.46957 18 9Z" fill="black"/>
<path d="M24 2C24 2.53043 23.6839 3.03914 23.1213 3.41421C22.5587 3.78929 21.7956 4 21 4H3C2.20435 4 1.44129 3.78929 0.878679 3.41421C0.316071 3.03914 0 2.53043 0 2C0 1.46957 0.316071 0.960859 0.878679 0.585786C1.44129 0.210713 2.20435 0 3 0H21C21.7956 0 22.5587 0.210713 23.1213 0.585786C23.6839 0.960859 24 1.46957 24 2V2Z" fill="black"/>
</svg>
