<svg width="802" height="263" viewBox="0 0 802 263" fill="none" xmlns="http://www.w3.org/2000/svg">
<g filter="url(#filter0_d_1513_3664)">
<rect width="704.137" height="170.486" rx="18.4864" transform="matrix(0.997546 -0.0700107 -0.323772 0.946135 66 71.4102)" fill="black"/>
<path d="M137.613 108.745L132.602 123.388L111.641 124.859L90.9744 185.25L71.7036 186.603L92.3697 126.212L71.4084 127.683L76.4195 113.039L137.613 108.745ZM180.891 120.103C188.104 119.597 193.109 121.471 195.905 125.726C198.727 129.91 198.784 135.956 196.077 143.866L184.153 178.711L164.995 180.056L176.078 147.669C177.443 143.678 177.415 140.655 175.992 138.599C174.569 136.543 172.017 135.644 168.336 135.902C164.654 136.161 161.346 137.471 158.411 139.833C155.477 142.195 153.327 145.371 151.961 149.361L140.878 181.748L121.607 183.101L148.675 104.004L167.945 102.652L158.545 130.122C161.401 127.348 164.787 125.059 168.704 123.254C172.622 121.449 176.684 120.399 180.891 120.103ZM203.955 148.112C206.052 141.983 209.095 136.519 213.084 131.719C217.148 126.913 221.711 123.115 226.772 120.326C231.832 117.537 236.955 115.96 242.139 115.596C246.571 115.285 250.148 115.869 252.868 117.347C255.664 118.82 257.488 120.882 258.34 123.535L261.23 115.091L280.501 113.738L260.09 173.381L240.819 174.734L243.709 166.29C240.88 169.201 237.482 171.63 233.516 173.577C229.625 175.52 225.463 176.646 221.031 176.957C215.922 177.316 211.69 176.396 208.337 174.197C205.007 171.927 202.895 168.563 202.001 164.105C201.206 159.571 201.857 154.24 203.955 148.112ZM251.025 144.912C252.585 140.352 252.464 136.848 250.662 134.402C248.935 131.95 246.155 130.858 242.323 131.127C238.492 131.396 234.772 132.943 231.166 135.77C227.658 138.52 225.124 142.175 223.564 146.735C222.003 151.296 222.074 154.838 223.777 157.361C225.579 159.808 228.396 160.897 232.228 160.628C236.06 160.359 239.741 158.814 243.273 155.993C246.88 153.166 249.464 149.473 251.025 144.912ZM332.978 109.429C340.341 108.913 345.421 110.782 348.218 115.036C351.114 119.215 351.209 125.258 348.502 133.168L336.578 168.013L317.42 169.358L328.503 136.971C329.868 132.981 329.84 129.957 328.417 127.901C326.994 125.845 324.442 124.946 320.76 125.205C317.079 125.463 313.771 126.773 310.836 129.135C307.902 131.497 305.751 134.673 304.386 138.664L293.303 171.05L274.032 172.403L294.442 112.76L313.713 111.407L311.006 119.317C313.862 116.543 317.199 114.292 321.016 112.564C324.859 110.764 328.846 109.719 332.978 109.429ZM388.398 164.376L377.799 140.709L369.24 165.721L349.969 167.073L377.036 87.9769L396.307 86.6245L381.347 130.341L408.696 104.741L432.474 103.072L396.088 134.836L412.29 162.7L388.398 164.376Z" fill="#FFCD00"/>
<path d="M537.035 80.712L492.459 132.871L483.973 157.669L464.702 159.021L473.188 134.223L462.994 85.9083L484.857 84.3739L489.43 114.723L515.397 82.2305L537.035 80.712ZM547.454 154.048C541.293 154.48 536.161 153.624 532.055 151.478C528.025 149.326 525.375 146.035 524.106 141.603C522.911 137.167 523.374 131.849 525.496 125.649C527.593 119.521 530.861 114.041 535.301 109.209C539.765 104.305 544.904 100.433 550.716 97.5905C556.528 94.7485 562.514 93.1113 568.675 92.6789C574.836 92.2465 579.968 93.1034 584.074 95.2494C588.179 97.3954 590.854 100.72 592.1 105.222C593.369 109.654 592.956 114.934 590.859 121.062C588.762 127.19 585.443 132.708 580.904 137.617C576.464 142.449 571.3 146.289 565.413 149.136C559.601 151.978 553.615 153.616 547.454 154.048ZM552.868 138.229C556.549 137.97 560.106 136.469 563.538 133.724C567.045 130.974 569.616 127.212 571.25 122.438C572.884 117.664 572.862 114.084 571.186 111.698C569.584 109.306 566.943 108.24 563.261 108.498C559.505 108.762 555.948 110.263 552.591 113.003C549.258 115.671 546.763 119.427 545.105 124.273C543.471 129.047 543.417 132.633 544.943 135.029C546.545 137.421 549.186 138.487 552.868 138.229ZM673.383 86.1648L652.972 145.808L633.702 147.16L636.481 139.037C633.626 141.811 630.227 144.135 626.285 146.012C622.443 147.811 618.494 148.854 614.437 149.138C609.628 149.476 605.725 148.776 602.726 147.039C599.752 145.231 597.909 142.474 597.197 138.769C596.486 135.063 597.02 130.609 598.8 125.408L610.724 90.5623L629.882 89.2178L618.799 121.605C617.434 125.595 617.462 128.618 618.885 130.674C620.308 132.73 622.86 133.629 626.542 133.371C630.298 133.107 633.644 131.795 636.578 129.433C639.513 127.071 641.663 123.895 643.029 119.904L654.112 87.5173L673.383 86.1648ZM718.763 65.3498L698.988 116.707L682.647 117.854L697.914 66.813L718.763 65.3498ZM681.736 144.624C678.355 144.861 675.892 144.13 674.347 142.43C672.902 140.654 672.655 138.376 673.606 135.597C674.581 132.747 676.45 130.286 679.212 128.214C682.049 126.137 685.158 124.98 688.539 124.743C691.845 124.511 694.22 125.283 695.666 127.059C697.186 128.83 697.459 131.141 696.483 133.991C695.532 136.77 693.638 139.198 690.801 141.275C688.063 143.276 685.042 144.392 681.736 144.624Z" fill="white"/>
</g>
<defs>
<filter id="filter0_d_1513_3664" x="-4.35813" y="-0.250416" width="810.207" height="263.451" filterUnits="userSpaceOnUse" color-interpolation-filters="sRGB">
<feFlood flood-opacity="0" result="BackgroundImageFix"/>
<feColorMatrix in="SourceAlpha" type="matrix" values="0 0 0 0 0 0 0 0 0 0 0 0 0 0 0 0 0 0 127 0" result="hardAlpha"/>
<feOffset dx="11.2972" dy="4.10809"/>
<feGaussianBlur stdDeviation="13.2486"/>
<feComposite in2="hardAlpha" operator="out"/>
<feColorMatrix type="matrix" values="0 0 0 0 0 0 0 0 0 0 0 0 0 0 0 0 0 0 0.25 0"/>
<feBlend mode="normal" in2="BackgroundImageFix" result="effect1_dropShadow_1513_3664"/>
<feBlend mode="normal" in="SourceGraphic" in2="effect1_dropShadow_1513_3664" result="shape"/>
</filter>
</defs>
</svg>
