<svg width="699" height="211" viewBox="0 0 699 211" fill="none" xmlns="http://www.w3.org/2000/svg">
<rect x="340.122" y="159.745" width="98.4002" height="15.609" fill="black" stroke="white" stroke-width="5.34562"/>
<path d="M526.383 144.307C530.121 144.307 532.058 141.064 533.083 138.137C534.19 134.978 534.834 130.621 535.232 125.57C535.93 116.709 535.917 104.975 535.902 92.1923C535.9 90.3333 535.898 88.4522 535.898 86.5545C535.898 84.6404 535.9 82.7609 535.902 80.9195C535.917 68.3935 535.93 57.6312 535.23 49.7363C534.83 45.2346 534.181 41.3842 533.033 38.592C531.89 35.8134 529.853 33.2491 526.383 33.2491C524.788 33.2491 523.276 33.8527 521.944 34.693C520.597 35.5429 519.278 36.7322 518.015 38.1546C515.488 41.0002 512.977 45.0158 510.753 49.8893C506.299 59.6531 502.841 73.2027 502.841 88.6072C502.841 104.011 506.298 117.643 510.75 127.488C512.972 132.402 515.48 136.459 518.004 139.336C519.265 140.774 520.583 141.978 521.93 142.84C523.261 143.691 524.778 144.307 526.383 144.307Z" fill="black" stroke="white" stroke-width="5.34562"/>
<rect x="299.073" y="24.3765" width="192.489" height="135.188" rx="20.3383" fill="black" stroke="white" stroke-width="5.34562"/>
<rect x="1.00895" y="-3.64278" width="11.4431" height="42.0242" rx="5.72155" transform="matrix(-0.870195 0.492708 0.492708 0.870195 414.416 170.449)" fill="black" stroke="white" stroke-width="5.34562"/>
<rect x="367.041" y="167.777" width="11.4431" height="42.0242" rx="5.72155" transform="rotate(29.5187 367.041 167.777)" fill="black" stroke="white" stroke-width="5.34562"/>
<path d="M412.155 21.3526C412.155 32.1784 403.606 40.8764 393.156 40.8764C382.706 40.8764 374.157 32.1784 374.157 21.3526C374.157 10.5267 382.706 1.82876 393.156 1.82876C403.606 1.82876 412.155 10.5267 412.155 21.3526Z" fill="black" stroke="white" stroke-width="3.65753"/>
<circle cx="393.156" cy="10.2042" r="3.14954" fill="white"/>
<circle cx="382.387" cy="19.1451" r="3.14954" fill="white"/>
<circle cx="403.926" cy="19.1451" r="3.14954" fill="white"/>
<circle cx="386.248" cy="30.9303" r="3.14954" fill="white"/>
<circle cx="400.065" cy="30.9303" r="3.14954" fill="white"/>
<path d="M370.909 26.5607C370.909 33.9275 365.094 39.8299 358.006 39.8299C350.917 39.8299 345.103 33.9275 345.103 26.5607C345.103 19.194 350.917 13.2916 358.006 13.2916C365.094 13.2916 370.909 19.194 370.909 26.5607Z" fill="black" stroke="white" stroke-width="3.25114"/>
<circle cx="358.006" cy="19.9359" r="1.90811" fill="white"/>
<circle cx="351.481" cy="25.4218" r="1.90811" fill="white"/>
<circle cx="364.53" cy="25.4218" r="1.90811" fill="white"/>
<circle cx="353.82" cy="32.5341" r="1.90811" fill="white"/>
<circle cx="362.191" cy="32.5341" r="1.90811" fill="white"/>
<rect x="492.245" y="48.5323" width="18.9598" height="80.325" fill="black" stroke="white" stroke-width="5.34562"/>
</svg>
