<svg width="31" height="31" viewBox="0 0 31 31" fill="none" xmlns="http://www.w3.org/2000/svg">
<g id="Layer 2">
<g id="Layer 3">
<path id="Vector" d="M29.7079 15.3427C29.7079 24.3037 26.7713 28.2738 19.058 29.0552C17.99 29.1595 16.9173 29.2099 15.8442 29.2064H14.4704C5.38338 28.8409 1.98047 24.9969 1.98047 15.3427C1.98047 5.26002 5.76148 1.479 15.8442 1.479C25.9269 1.479 29.7079 5.26002 29.7079 15.3427Z" fill="url(#paint0_linear_115_1026)"/>
<path id="Vector_2" d="M19.0593 13.49V16.4266H23.3066L22.6387 20.7369H19.0593V29.0552C17.9912 29.1595 16.9186 29.2099 15.8454 29.2064H14.4717V20.7621H10.5898V16.4266H14.4717V13.1875C14.433 12.4032 14.5513 11.619 14.8196 10.881C15.088 10.143 15.501 9.46603 16.0345 8.88977C18.2275 6.52034 23.4075 7.78068 23.4075 7.78068V11.3852H21.1641C20.6059 11.3852 20.0705 11.607 19.6758 12.0017C19.2811 12.3964 19.0593 12.9318 19.0593 13.49Z" fill="white"/>
</g>
</g>
<defs>
<linearGradient id="paint0_linear_115_1026" x1="15.8442" y1="29.2064" x2="15.8442" y2="1.479" gradientUnits="userSpaceOnUse">
<stop stop-color="#0066EF"/>
<stop offset="1" stop-color="#00B2FF"/>
</linearGradient>
</defs>
</svg>
