<svg id="Layer_1" enable-background="new 0 0 512 512" height="512" viewBox="0 0 512 512" width="512" xmlns="http://www.w3.org/2000/svg"><path clip-rule="evenodd" d="m57.107 358.381c-.689 1.547-1.953 2.741-3.552 3.358-1.609.618-3.349.59-4.901-.09l-28.85-12.76c-1.547-.679-2.75-1.939-3.368-3.552-.618-1.609-.58-3.34.099-4.896l66.242-149.868c1.061-2.387 3.41-3.816 5.868-3.816.859 0 1.741.179 2.58.547l28.85 12.755c3.231 1.425 4.698 5.217 3.269 8.443zm308.809-324.581c15.196 0 27.515 12.319 27.515 27.515s-12.319 27.515-27.515 27.515-27.515-12.319-27.515-27.515 12.319-27.515 27.515-27.515zm-.001 62.38c24.444 0 45.124 16.116 51.995 38.302 1.207 3.898.551 7.776-1.87 11.061s-5.932 5.058-10.012 5.058h-61.707v-.857l-.091-.849c-1.549-14.474-6.544-27.826-14.11-39.286 9.568-8.361 22.09-13.429 35.795-13.429zm-219.831 0c13.706 0 26.228 5.068 35.796 13.43-7.565 11.46-12.561 24.812-14.11 39.286l-.091.849v.856h-61.707c-4.08 0-7.591-1.774-10.012-5.058-2.421-3.285-3.077-7.163-1.87-11.061 6.87-22.186 27.551-38.302 51.994-38.302zm182.237 54.418c-3.906-36.492-34.793-64.913-72.321-64.913-37.529 0-68.416 28.422-72.321 64.914v14.702c0 10.706 8.732 19.439 19.439 19.439h105.763c10.707 0 19.439-8.732 19.439-19.439v-14.703zm-72.321-145.021c20.312 0 36.778 16.466 36.778 36.778s-16.466 36.778-36.778 36.778-36.778-16.466-36.778-36.778c.001-20.312 16.466-36.778 36.778-36.778zm-109.916 28.223c15.196 0 27.515 12.319 27.515 27.515s-12.319 27.515-27.515 27.515-27.515-12.319-27.515-27.515 12.319-27.515 27.515-27.515zm-39.437 180.238c.25-5.41-3.929-9.996-9.34-10.246-5.401-.25-9.991 3.929-10.241 9.335-.25 5.411 3.929 9.996 9.34 10.245 5.401.251 9.991-3.929 10.241-9.334zm8.108 222.232c-7.43-3.981-10.236-13.26-6.269-20.689l14.359-26.85c3.981-7.43 13.26-10.241 20.703-6.269 7.019 3.736 9.967 12.297 6.788 19.585l-18.92 32.751c-4.759 3.713-11.307 4.331-16.661 1.472zm31.869 36.331c7.429 3.972 16.731 1.118 20.741-6.363l20.892-40.459c1.297-6.528-1.864-13.387-7.741-16.529-5.401-2.877-12-2.231-16.751 1.538l-23.411 41.109c-1.92 3.58-2.321 7.712-1.127 11.642 1.189 3.93 3.817 7.142 7.397 9.062zm43.61 14.369c-5.325-2.849-8.448-8.609-8.029-14.599l20.213-39.138c4.708-4.641 12.118-5.783 17.977-2.642 5.882 3.132 9.052 9.981 7.75 16.51l-18.538 35.628c-4.519 5.939-12.76 7.783-19.373 4.241zm53.492 18.778c3.929-1.189 7.142-3.807 9.062-7.387l13.769-25.75c1.911-3.58 2.311-7.722 1.109-11.661-1.198-3.92-3.821-7.132-7.378-9.028-5.873-3.142-13.279-2-17.991 2.646l-18.189 34.963c-.651 6.179 2.458 12.151 7.981 15.099 3.58 1.911 7.707 2.312 11.637 1.118zm57.209-11.59c-1.896 3.443-5.17 6.033-8.991 7.104-3.698 1.038-7.51.59-10.736-1.264l-8.533-4.906 7.991-14.944c2.024-3.779 3.212-7.868 3.571-12.029l11.109 6.241c6.9 4.02 9.419 12.841 5.589 19.798zm94.04-103.116c3.821-6.953 1.194-15.883-5.868-19.911l-78.219-44.582c-13.401-7.632-30.053-.901-49.332 6.911-28.312 11.458-63.549 25.732-93.677-13.043-1.892-2.415-2.642-5.557-2.061-8.59.576-3.029 2.448-5.656 5.118-7.217 22.081-12.887 40.732-26.953 55.431-41.808 4.09-4.142 8.231-7.92 12.359-11.331-14.859-7.113-30.048-3.859-45.978-.439-16.019 3.439-32.581 6.995-47.803-1.406l-18.51-8.538-44.94 101.682c9.212 4.099 14.812 6.548 16.67 7.269 11.104 4.307 14.123 15.071 15.868 23.949 9.481-9.618 24.543-12.33 37.053-5.651 9.241 4.93 15.038 13.93 16.279 23.69 6.901-1.326 14.213-.349 20.68 3.113 7.759 4.137 13.17 11.161 15.401 19.18 7.901-2.59 16.732-1.991 24.491 2.151 7.75 4.137 13.156 11.16 15.387 19.18 7.91-2.59 16.741-1.99 24.501 2.146 3.873 2.08 7.198 4.901 9.84 8.283l40.822 22.826c3.358 1.863 7.269 2.293 11.019 1.212 3.793-1.09 6.92-3.571 8.802-7 3.84-6.991 1.227-15.901-5.821-19.878l-57.822-32.704c-3.84-2.179-5.189-7.066-3.009-10.906 2.179-3.84 7.071-5.194 10.91-3l70.752 39.808c3.396 1.873 7.349 2.302 11.118 1.198 3.76-1.085 6.868-3.557 8.732-6.958 3.849-6.991 1.24-15.911-5.821-19.892-20.019-11.208-36.714-20.567-53.888-30.407-3.84-2.203-5.17-7.09-2.972-10.92 2.198-3.845 7.08-5.161 10.92-2.972 17.128 9.812 33.779 19.151 53.77 30.35 3.321 1.858 7.208 2.288 10.948 1.231 3.812-1.096 6.963-3.587 8.85-7.026zm10.472-26.769c-2.311-2.764-5.132-5.165-8.42-7.043l-78.219-44.582c-20.133-11.477-42.053-2.599-63.252 5.981-26.492 10.722-49.558 20.057-71.148-3.42 20.949-12.708 38.869-26.543 53.327-41.152 6.533-6.599 13.1-12.175 19.552-16.581 30.34-20.812 51.369-12.217 71.719-3.901 14.92 6.099 30.35 12.406 46.539 3.986l14.939-8 40.365 104.107zm86.47-2.335-29.411 11.401c-3.297 1.283-7.01-.358-8.288-3.66l-59.233-152.773c-1.269-3.293.372-7.01 3.66-8.288l29.411-11.401c.759-.293 1.538-.434 2.311-.434 2.561 0 4.986 1.557 5.981 4.09l59.219 152.778c1.279 3.291-.363 7.009-3.65 8.287zm-60.898-138.735c0-5.396-4.401-9.802-9.802-9.802s-9.802 4.406-9.802 9.802c0 5.401 4.401 9.802 9.802 9.802s9.802-4.401 9.802-9.802z" fill-rule="evenodd"/></svg>