<svg width="29" height="30" viewBox="0 0 29 30" fill="none" xmlns="http://www.w3.org/2000/svg">
<g id="instagram" clip-path="url(#clip0_101_1301)">
<path id="Path 14" d="M9.56155 15.082C9.56155 14.1365 9.84194 13.2122 10.3673 12.426C10.8926 11.6399 11.6392 11.0271 12.5128 10.6653C13.3864 10.3035 14.3476 10.2088 15.275 10.3933C16.2024 10.5777 17.0542 11.033 17.7228 11.7016C18.3915 12.3702 18.8468 13.222 19.0312 14.1494C19.2157 15.0767 19.121 16.0379 18.7592 16.9115C18.3973 17.785 17.7846 18.5316 16.9984 19.0569C16.2122 19.5822 15.2879 19.8626 14.3423 19.8626C13.0744 19.8626 11.8584 19.3589 10.9618 18.4624C10.0652 17.5659 9.56155 16.3499 9.56155 15.082ZM6.97684 15.082C6.97684 16.5385 7.40875 17.9623 8.21795 19.1733C9.02715 20.3844 10.1773 21.3283 11.523 21.8857C12.8686 22.4431 14.3494 22.589 15.7779 22.3049C17.2065 22.0208 18.5188 21.3195 19.5488 20.2897C20.5788 19.2598 21.2803 17.9477 21.5645 16.5192C21.8488 15.0907 21.7031 13.61 21.1458 12.2644C20.5885 10.9187 19.6447 9.76848 18.4337 8.95917C17.2227 8.14986 15.7989 7.71781 14.3423 7.71764C13.3752 7.71761 12.4175 7.90807 11.524 8.27815C10.6304 8.64823 9.81853 9.19068 9.13465 9.87453C8.45078 10.5584 7.9083 11.3702 7.53821 12.2637C7.16811 13.1572 6.97765 14.1149 6.97768 15.082M20.2761 7.42575C20.276 7.76613 20.3768 8.0989 20.5659 8.38198C20.7549 8.66506 21.0236 8.88574 21.338 9.0161C21.6525 9.14646 21.9985 9.18066 22.3324 9.11436C22.6663 9.04807 22.973 8.88426 23.2138 8.64365C23.4546 8.40304 23.6186 8.09644 23.6851 7.76261C23.7516 7.42879 23.7176 7.08274 23.5875 6.76823C23.4573 6.45371 23.2368 6.18485 22.9538 5.99565C22.6709 5.80645 22.3382 5.70541 21.9978 5.7053C21.5415 5.70552 21.1039 5.88684 20.7812 6.20942C20.4585 6.532 20.277 6.96947 20.2767 7.42575M8.54915 26.7559C7.63961 26.7455 6.73864 26.5787 5.8857 26.2627C5.26275 26.0324 4.69914 25.6659 4.23605 25.1898C3.75928 24.7278 3.39261 24.1644 3.16319 23.5414C2.84664 22.6886 2.6794 21.7876 2.6688 20.878C2.59934 19.3663 2.58443 18.9121 2.58443 15.0823C2.58443 11.2525 2.59934 10.7994 2.6688 9.28652C2.68022 8.37711 2.84705 7.47636 3.16206 6.62317C3.39232 6.00025 3.75887 5.43666 4.23492 4.97359C4.69721 4.49657 5.26106 4.12988 5.88457 3.90077C6.73781 3.58439 7.6392 3.41744 8.54915 3.40724C10.061 3.33778 10.5152 3.32288 14.3423 3.32288C18.1695 3.32288 18.6253 3.33778 20.1383 3.40724C21.0478 3.41866 21.9486 3.58548 22.8018 3.90048C23.4249 4.13031 23.9886 4.4969 24.4514 4.9733C24.9278 5.43607 25.2945 5.99976 25.5243 6.62289C25.8404 7.47576 26.0073 8.37672 26.0175 9.28624C26.087 10.7992 26.1019 11.2522 26.1019 15.082C26.1019 18.9118 26.0881 19.3648 26.0175 20.8778C26.0066 21.7872 25.8397 22.688 25.5243 23.5411C25.2856 24.1596 24.92 24.7213 24.4511 25.19C23.9822 25.6587 23.4204 26.024 22.8018 26.2624C21.9489 26.5785 21.0479 26.7454 20.1383 26.7556C18.6265 26.8251 18.1723 26.84 14.3423 26.84C10.5124 26.84 10.0593 26.8265 8.54915 26.7559ZM8.42935 0.827129C7.2396 0.850665 6.06248 1.07593 4.9481 1.49332C3.99099 1.85345 3.12391 2.41792 2.40726 3.1474C1.677 3.86335 1.11231 4.73047 0.752832 5.68786C0.335525 6.80231 0.110351 7.97948 0.0868976 9.16926C0.0163109 10.6985 0 11.1872 0 15.082C0 18.9768 0.0163109 19.4655 0.0868976 20.9947C0.110462 22.1844 0.335731 23.3615 0.753113 24.4759C1.11258 25.4333 1.67716 26.3005 2.40726 27.0166C3.12415 27.7457 3.99104 28.3102 4.94782 28.671C6.06224 29.0882 7.23934 29.3135 8.42907 29.3372C9.9592 29.4066 10.4471 29.424 14.342 29.424C18.237 29.424 18.7257 29.4077 20.255 29.3372C21.4448 29.3136 22.6219 29.0883 23.7363 28.671C24.6892 28.3025 25.5547 27.7391 26.2771 27.0166C26.9996 26.2942 27.5631 25.4288 27.9315 24.4759C28.3495 23.3617 28.5748 22.1845 28.5978 20.9947C28.6672 19.4644 28.6821 18.9768 28.6821 15.082C28.6821 11.1872 28.6658 10.6985 28.5978 9.16926C28.5743 7.97955 28.349 6.80246 27.9315 5.68814C27.5709 4.73134 27.0064 3.8644 26.2774 3.1474C25.5615 2.41757 24.6948 1.85295 23.738 1.49304C22.6236 1.07543 21.4463 0.850255 20.2564 0.827129C18.7274 0.757669 18.2384 0.740234 14.3423 0.740234C10.4463 0.740234 9.95807 0.756545 8.42823 0.827129" fill="url(#paint0_radial_101_1301)"/>
<path id="Path 15" d="M9.56155 15.082C9.56155 14.1365 9.84194 13.2122 10.3673 12.426C10.8926 11.6399 11.6392 11.0271 12.5128 10.6653C13.3864 10.3035 14.3476 10.2088 15.275 10.3933C16.2024 10.5777 17.0542 11.033 17.7228 11.7016C18.3915 12.3702 18.8468 13.222 19.0312 14.1494C19.2157 15.0767 19.121 16.0379 18.7592 16.9115C18.3973 17.785 17.7846 18.5316 16.9984 19.0569C16.2122 19.5822 15.2879 19.8626 14.3423 19.8626C13.0744 19.8626 11.8584 19.3589 10.9618 18.4624C10.0652 17.5659 9.56155 16.3499 9.56155 15.082ZM6.97684 15.082C6.97684 16.5385 7.40875 17.9623 8.21795 19.1733C9.02715 20.3844 10.1773 21.3283 11.523 21.8857C12.8686 22.4431 14.3494 22.589 15.7779 22.3049C17.2065 22.0208 18.5188 21.3195 19.5488 20.2897C20.5788 19.2598 21.2803 17.9477 21.5645 16.5192C21.8488 15.0907 21.7031 13.61 21.1458 12.2644C20.5885 10.9187 19.6447 9.76848 18.4337 8.95917C17.2227 8.14986 15.7989 7.71781 14.3423 7.71764C13.3752 7.71761 12.4175 7.90807 11.524 8.27815C10.6304 8.64823 9.81853 9.19068 9.13465 9.87453C8.45078 10.5584 7.9083 11.3702 7.53821 12.2637C7.16811 13.1572 6.97765 14.1149 6.97768 15.082M20.2761 7.42575C20.276 7.76613 20.3768 8.0989 20.5659 8.38198C20.7549 8.66506 21.0236 8.88574 21.338 9.0161C21.6525 9.14646 21.9985 9.18066 22.3324 9.11436C22.6663 9.04807 22.973 8.88426 23.2138 8.64365C23.4546 8.40304 23.6186 8.09644 23.6851 7.76261C23.7516 7.42879 23.7176 7.08274 23.5875 6.76823C23.4573 6.45371 23.2368 6.18485 22.9538 5.99565C22.6709 5.80645 22.3382 5.70541 21.9978 5.7053C21.5415 5.70552 21.1039 5.88684 20.7812 6.20942C20.4585 6.532 20.277 6.96947 20.2767 7.42575M8.54915 26.7559C7.63961 26.7455 6.73864 26.5787 5.8857 26.2627C5.26275 26.0324 4.69914 25.6659 4.23605 25.1898C3.75928 24.7278 3.39261 24.1644 3.16319 23.5414C2.84664 22.6886 2.6794 21.7876 2.6688 20.878C2.59934 19.3663 2.58443 18.9121 2.58443 15.0823C2.58443 11.2525 2.59934 10.7994 2.6688 9.28652C2.68022 8.37711 2.84705 7.47636 3.16206 6.62317C3.39232 6.00025 3.75887 5.43666 4.23492 4.97359C4.69721 4.49657 5.26106 4.12988 5.88457 3.90077C6.73781 3.58439 7.6392 3.41744 8.54915 3.40724C10.061 3.33778 10.5152 3.32288 14.3423 3.32288C18.1695 3.32288 18.6253 3.33778 20.1383 3.40724C21.0478 3.41866 21.9486 3.58548 22.8018 3.90048C23.4249 4.13031 23.9886 4.4969 24.4514 4.9733C24.9278 5.43607 25.2945 5.99976 25.5243 6.62289C25.8404 7.47576 26.0073 8.37672 26.0175 9.28624C26.087 10.7992 26.1019 11.2522 26.1019 15.082C26.1019 18.9118 26.0881 19.3648 26.0175 20.8778C26.0066 21.7872 25.8397 22.688 25.5243 23.5411C25.2856 24.1596 24.92 24.7213 24.4511 25.19C23.9822 25.6587 23.4204 26.024 22.8018 26.2624C21.9489 26.5785 21.0479 26.7454 20.1383 26.7556C18.6265 26.8251 18.1723 26.84 14.3423 26.84C10.5124 26.84 10.0593 26.8265 8.54915 26.7559ZM8.42935 0.827129C7.2396 0.850665 6.06248 1.07593 4.9481 1.49332C3.99099 1.85345 3.12391 2.41792 2.40726 3.1474C1.677 3.86335 1.11231 4.73047 0.752832 5.68786C0.335525 6.80231 0.110351 7.97948 0.0868976 9.16926C0.0163109 10.6985 0 11.1872 0 15.082C0 18.9768 0.0163109 19.4655 0.0868976 20.9947C0.110462 22.1844 0.335731 23.3615 0.753113 24.4759C1.11258 25.4333 1.67716 26.3005 2.40726 27.0166C3.12415 27.7457 3.99104 28.3102 4.94782 28.671C6.06224 29.0882 7.23934 29.3135 8.42907 29.3372C9.9592 29.4066 10.4471 29.424 14.342 29.424C18.237 29.424 18.7257 29.4077 20.255 29.3372C21.4448 29.3136 22.6219 29.0883 23.7363 28.671C24.6892 28.3025 25.5547 27.7391 26.2771 27.0166C26.9996 26.2942 27.5631 25.4288 27.9315 24.4759C28.3495 23.3617 28.5748 22.1845 28.5978 20.9947C28.6672 19.4644 28.6821 18.9768 28.6821 15.082C28.6821 11.1872 28.6658 10.6985 28.5978 9.16926C28.5743 7.97955 28.349 6.80246 27.9315 5.68814C27.5709 4.73134 27.0064 3.8644 26.2774 3.1474C25.5615 2.41757 24.6948 1.85295 23.738 1.49304C22.6236 1.07543 21.4463 0.850255 20.2564 0.827129C18.7274 0.757669 18.2384 0.740234 14.3423 0.740234C10.4463 0.740234 9.95807 0.756545 8.42823 0.827129" fill="url(#paint1_radial_101_1301)"/>
</g>
<defs>
<radialGradient id="paint0_radial_101_1301" cx="0" cy="0" r="1" gradientUnits="userSpaceOnUse" gradientTransform="translate(3.81084 29.5593) scale(37.4439 37.4424)">
<stop offset="0.09" stop-color="#FA8F21"/>
<stop offset="0.78" stop-color="#D82D7E"/>
</radialGradient>
<radialGradient id="paint1_radial_101_1301" cx="0" cy="0" r="1" gradientUnits="userSpaceOnUse" gradientTransform="translate(17.3961 30.8442) scale(29.5109 29.5097)">
<stop offset="0.64" stop-color="#8C3AAA" stop-opacity="0"/>
<stop offset="1" stop-color="#8C3AAA"/>
</radialGradient>
<clipPath id="clip0_101_1301">
<rect width="28.6835" height="28.6835" fill="white" transform="translate(0 0.740234)"/>
</clipPath>
</defs>
</svg>
