<svg id="Layer_1" enable-background="new 0 0 512 512" height="512" viewBox="0 0 512 512" width="512" xmlns="http://www.w3.org/2000/svg"><g id="Layer_2_00000103957250022562607880000013005552708226661055_"><g id="maps"><g id="_04.library"><path d="m351.8 94c0 26.5-9.1 48.7-27.2 66.9-18.1 18.1-40.4 27.2-66.9 27.2-26.4 0-48.7-9.1-66.8-27.2s-27.2-40.4-27.2-66.9 9.1-48.7 27.2-66.9 40.5-27.1 66.9-27.1c26.5 0 48.7 9.1 66.9 27.2s27.2 40.4 27.1 66.8z"/><path d="m475.8 193.4v216.4c0 11.9-9.2 21.7-21 22.5-32.5 2.3-64.5 9.7-94.7 21.9-32.4 13-62.7 30.8-89.9 52.8-8.3 6.6-20 6.6-28.3 0-27.2-22-57.5-39.8-89.9-52.8-30.2-12.2-62.2-19.6-94.7-21.9-11.8-.8-21-10.7-21-22.5v-216.4c.1-12.5 10.2-22.6 22.7-22.6.8 0 1.5 0 2.3.1 29.8 3 59.4 11.3 88.9 25 37.6 17.5 73 41.9 105.9 73.3 33-31.3 68.3-55.8 105.9-73.3 29.4-13.7 59.1-22 88.9-25 12.4-1.3 23.6 7.7 24.9 20.2-.1.8 0 1.6 0 2.3z"/></g></g></g></svg>