<svg width="28" height="28" viewBox="0 0 28 28" fill="none" xmlns="http://www.w3.org/2000/svg">
<g id="providers-list">
<g id="linkedin">
<path id="Rectangle-2" d="M26.483 0.304688H2.21959C1.38207 0.304688 0.703125 0.98363 0.703125 1.82115V26.0845C0.703125 26.922 1.38207 27.601 2.21959 27.601H26.483C27.3205 27.601 27.9994 26.922 27.9994 26.0845V1.82115C27.9994 0.98363 27.3205 0.304688 26.483 0.304688Z" fill="#117EB8"/>
<path id="Shape" fill-rule="evenodd" clip-rule="evenodd" d="M5.68435 10.8622H9.33257V22.6004H5.68435V10.8622ZM7.50903 5.02723C8.67556 5.02723 9.62335 5.97502 9.62335 7.14156C9.62335 8.30924 8.67556 9.2574 7.50903 9.2574C7.2279 9.26272 6.94853 9.21195 6.68726 9.10805C6.42598 9.00415 6.18804 8.8492 5.98735 8.65227C5.78665 8.45534 5.62723 8.22037 5.5184 7.96111C5.40957 7.70185 5.35352 7.42349 5.35352 7.14232C5.35352 6.86114 5.40957 6.58279 5.5184 6.32352C5.62723 6.06426 5.78665 5.8293 5.98735 5.63237C6.18804 5.43544 6.42598 5.28049 6.68726 5.17659C6.94853 5.07269 7.2279 5.02191 7.50903 5.02723ZM11.6209 10.8618H15.1201V12.4659H15.1687C15.6558 11.5431 16.8459 10.5703 18.6205 10.5703C22.3146 10.5703 22.997 13.0015 22.997 16.1622V22.6004H19.3511V16.892C19.3511 15.531 19.326 13.7799 17.4555 13.7799C15.5573 13.7799 15.2657 15.2626 15.2657 16.7938V22.6004H11.6205V10.8622L11.6209 10.8618Z" fill="white"/>
</g>
</g>
</svg>
