<svg id="filled" height="512" viewBox="0 0 32 32" width="512" xmlns="http://www.w3.org/2000/svg"><g><path d="m17.5 12a.49514.49514 0 0 1 -.5.5h-1a.49511.49511 0 0 0 -.5.5v2.5h-2v-.5a1.5 1.5 0 0 0 -3 0v.5h-2.99a8.52037 8.52037 0 0 1 7.99-7.99v3.49a.49514.49514 0 0 0 .5.5h1a.49511.49511 0 0 1 .5.5z"/><path d="m24.49 15.5h-3.49a.51262.51262 0 0 0 -.5.5v1a.5.5 0 0 1 -1 0v-1a.49511.49511 0 0 0 -.5-.5h-2.5v-2h.5a1.5 1.5 0 0 0 0-3h-.5v-2.99a8.52037 8.52037 0 0 1 7.99 7.99z"/><path d="m5 16.5h-3a.5.5 0 0 1 0-1h3a.5.5 0 0 1 0 1z"/><path d="m6.47314 11a.49724.49724 0 0 1 -.24951-.06689l-2.59814-1.5a.50008.50008 0 1 1 .5-.86622l2.59814 1.5a.5.5 0 0 1 -.25049.93311z"/><path d="m10.50049 6.97363a.49955.49955 0 0 1 -.4336-.25l-1.5-2.59814a.50008.50008 0 0 1 .86622-.5l1.5 2.59814a.5.5 0 0 1 -.43262.75z"/><path d="m16 5.5a.49971.49971 0 0 1 -.5-.5v-3a.5.5 0 0 1 1 0v3a.49971.49971 0 0 1 -.5.5z"/><path d="m21.49951 6.97363a.5.5 0 0 1 -.43262-.75l1.5-2.59814a.50008.50008 0 0 1 .86622.5l-1.5 2.59814a.50058.50058 0 0 1 -.4336.25z"/><path d="m25.52686 11a.5.5 0 0 1 -.25049-.93311l2.59814-1.5a.50008.50008 0 0 1 .5.86622l-2.59814 1.5a.49724.49724 0 0 1 -.24951.06689z"/><path d="m30 16.5h-3a.5.5 0 0 1 0-1h3a.5.5 0 0 1 0 1z"/><path d="m28.124 23.5a.49721.49721 0 0 1 -.24951-.06689l-2.59814-1.5a.50008.50008 0 1 1 .5-.86622l2.59814 1.5a.5.5 0 0 1 -.25049.93311z"/><path d="m3.876 23.5a.5.5 0 0 1 -.25049-.93311l2.59814-1.5a.50008.50008 0 1 1 .5.86622l-2.59814 1.5a.49721.49721 0 0 1 -.24951.06689z"/><path d="m21.5 16.5v.5a1.5 1.5 0 0 1 -3 0v-.5h-2v2.5a.49514.49514 0 0 1 -.5.5h-1a.5.5 0 0 0 0 1h1a.49511.49511 0 0 1 .5.5v2.5h-1v-2h-.5a1.5 1.5 0 0 1 0-3h.5v-2h-2.5a.49514.49514 0 0 1 -.5-.5v-1a.5.5 0 0 0 -1 0v1a.49514.49514 0 0 1 -.5.5h-3.01c-.08 0-.25-.02-.47-.04-.01.01-.01.02 0 .04a8.54035 8.54035 0 0 0 3.98 6.71v.79a.49514.49514 0 0 0 .5.5h.5v1h-.5a.50142.50142 0 0 0 -.5.5.49514.49514 0 0 0 .5.5h.5v1.5a.49514.49514 0 0 0 .5.5h.55a2.50064 2.50064 0 0 0 4.9 0h.55a.49514.49514 0 0 0 .5-.5v-1.5h.5a.49514.49514 0 0 0 .5-.5.50142.50142 0 0 0 -.5-.5h-.5v-1h.5a.49514.49514 0 0 0 .5-.5v-.79a8.54035 8.54035 0 0 0 3.98-6.71zm-5.5 13a1.49532 1.49532 0 0 1 -1.41-1h2.82a1.49532 1.49532 0 0 1 -1.41 1zm2.5-2h-5v-1h5zm0-2h-5v-1h5z"/></g></svg>