<svg id="Layer_1" height="512" viewBox="0 0 512 512" width="512" xmlns="http://www.w3.org/2000/svg" data-name="Layer 1"><path d="m437.333 64h-362.667a53.394 53.394 0 0 0 -53.333 53.333v256a53.394 53.394 0 0 0 53.333 53.333h117.334a10.667 10.667 0 0 0 0-21.333v-53.333h10.667a10.667 10.667 0 1 0 0-21.333h-160v-170.667h426.666v74.667a10.667 10.667 0 0 0 21.333 0v-117.334a53.394 53.394 0 0 0 -53.333-53.333zm-266.667 288v53.333h-53.333v-53.333zm-74.666 0v53.333h-21.334a32.036 32.036 0 0 1 -32-32v-21.333zm-53.334-213.333v-21.334a32.036 32.036 0 0 1 32-32h21.334v53.333zm74.667 0v-53.334h53.333v53.333zm74.667 0v-53.334h53.333v53.333zm74.667 0v-53.334h53.333v53.333zm74.667 0v-53.334h53.333v53.333zm74.667 0v-53.334h21.333a32.036 32.036 0 0 1 32 32v21.333z"/><path d="m489.237 281.98a10.667 10.667 0 0 0 -14.571-3.9l-98.3 56.755-53.518-30.9a44.9 44.9 0 1 0 -10.611 18.507l42.8 24.708-42.852 24.74a45.051 45.051 0 1 0 10.667 18.475l53.518-30.9 98.3 56.755a10.666 10.666 0 1 0 10.667-18.475l-87.636-50.6 87.636-50.6a10.667 10.667 0 0 0 3.9-14.565zm-203.376 32.28a23.717 23.717 0 1 1 14.4-11.05 23.575 23.575 0 0 1 -14.4 11.05zm5.72 109.223a23.713 23.713 0 1 1 8.681-32.4 23.744 23.744 0 0 1 -8.681 32.4z"/></svg>