<svg width="22" height="12" viewBox="0 0 22 12" fill="none" xmlns="http://www.w3.org/2000/svg">
<path d="M14.5061 10.3125L21.0029 3.81566C21.4014 3.41702 21.6251 2.87642 21.625 2.31279C21.6249 1.74915 21.4008 1.20866 21.0022 0.810206C20.6036 0.411752 20.063 0.187978 19.4993 0.18811C18.9357 0.188243 18.3952 0.412273 17.9967 0.810915L11.5013 7.30774C11.4355 7.3737 11.3574 7.42604 11.2713 7.46175C11.1852 7.49746 11.093 7.51584 10.9998 7.51584C10.9066 7.51584 10.8144 7.49746 10.7283 7.46175C10.6423 7.42604 10.5641 7.3737 10.4983 7.30774L4.0029 0.810915C3.60445 0.412273 3.06395 0.188243 2.50032 0.18811C1.93669 0.187978 1.39609 0.411752 0.997445 0.810206C0.598803 1.20866 0.374771 1.74915 0.374638 2.31279C0.374505 2.87642 0.59828 3.41702 0.996735 3.81566L7.49357 10.3125C8.42437 11.2407 9.68527 11.762 10.9998 11.762C12.3144 11.762 13.5753 11.2407 14.5061 10.3125V10.3125Z" fill="#0070D1"/>
</svg>
