<svg width="12" height="22" viewBox="0 0 12 22" fill="none" xmlns="http://www.w3.org/2000/svg">
<path d="M10.3119 7.49381L3.81505 0.996975C3.41641 0.59852 2.87581 0.374745 2.31218 0.374878C1.74854 0.375011 1.20805 0.59904 0.809596 0.997682C0.411142 1.39632 0.187367 1.93693 0.1875 2.50056C0.187633 3.06419 0.411663 3.60469 0.810305 4.00314L7.30713 10.4986C7.37309 10.5644 7.42543 10.6425 7.46114 10.7286C7.49685 10.8146 7.51523 10.9069 7.51523 11.0001C7.51523 11.0932 7.49685 11.1855 7.46114 11.2715C7.42543 11.3576 7.37309 11.4358 7.30713 11.5016L0.810305 17.997C0.411663 18.3954 0.187633 18.9359 0.1875 19.4996C0.187367 20.0632 0.411142 20.6038 0.809596 21.0024C1.20805 21.4011 1.74854 21.6251 2.31218 21.6252C2.87581 21.6254 3.41641 21.4016 3.81505 21.0031L10.3119 14.5063C11.2401 13.5755 11.7614 12.3146 11.7614 11.0001C11.7614 9.68551 11.2401 8.42461 10.3119 7.49381V7.49381Z" fill="black"/>
</svg>
