<svg id="Layer_1" enable-background="new 0 0 512 512" height="512" viewBox="0 0 512 512" width="512" xmlns="http://www.w3.org/2000/svg"><path clip-rule="evenodd" d="m217.726 15.151c113.619 0 205.726 92.106 205.726 205.725 0 6.711-.333 13.344-.96 19.89-7.294-10.217-19.246-16.9-32.709-16.9h-11.868c.018-.995.038-1.99.038-2.99 0-88.489-71.737-160.226-160.226-160.226-88.49 0-160.227 71.738-160.227 160.226 0 75.516 52.25 138.822 122.567 155.763.695 1.546 1.466 3.069 2.313 4.567 1.937 3.423 4.224 6.61 6.785 9.569v33.844c-100.098-13.905-177.165-99.817-177.165-203.743 0-113.618 92.107-205.725 205.726-205.725zm196.222 248.882c0-13.292-10.875-24.167-24.166-24.167h-12.944-59.205c-13.291 0-24.168 10.876-24.168 24.167v16.169h21.395v-16.169c0-1.483 1.291-2.773 2.773-2.773h55.186 16.963c1.483 0 2.772 1.29 2.772 2.773v16.169h21.394zm-80.681 147.621c0 11.29 9.15 20.439 20.44 20.439s20.439-9.149 20.439-20.439c0-11.289-9.149-20.439-20.439-20.439-11.291 0-20.44 9.15-20.44 20.439zm109.011-115.452v29.628c0 6.198-2.53 11.827-6.605 15.903-4.076 4.075-9.705 6.605-15.903 6.605h-132.128c-6.198 0-11.827-2.53-15.903-6.605-4.075-4.076-6.605-9.705-6.605-15.903v-29.628h-54.151c-.978 0-1.87.403-2.519 1.052s-1.052 1.542-1.052 2.52v55.053c0 4.02 1.017 7.53 2.768 10.624 9.429 16.663 36.906 23.492 52.604 26.703 16.637 3.404 36.163 5.701 56.725 6.896 5.271-14.29 18.895-23.834 34.198-23.834 15.296 0 28.912 9.534 34.189 23.814 20.598-1.208 40.141-3.514 56.767-6.913 15.706-3.211 43.141-10.002 52.57-26.665 1.751-3.094 2.768-6.604 2.768-10.625v-55.053c0-.978-.403-1.87-1.052-2.52-.649-.649-1.541-1.052-2.519-1.052zm-161.145 0v29.628c0 1.781.735 3.407 1.918 4.59s2.809 1.918 4.59 1.918h132.129c1.781 0 3.407-.735 4.59-1.918s1.918-2.809 1.918-4.59v-29.628zm36.277 118.703c-20.866-1.259-40.739-3.633-57.814-7.126-15.347-3.14-28.566-7.227-38.432-12.277v86.763c0 4.002 1.643 7.646 4.29 10.293s6.291 4.29 10.293 4.29h235.913c4.002 0 7.647-1.643 10.294-4.29s4.29-6.291 4.29-10.293v-86.765c-9.837 5.027-23.045 9.104-38.396 12.242-17.082 3.492-36.969 5.875-57.847 7.145-1.651 18.774-17.427 33.206-36.297 33.206-18.86 0-34.635-14.422-36.294-33.188zm-227.255-186.029h13.828c4.418 0 8-3.582 8-8s-3.582-8-8-8h-13.828c-4.418 0-8 3.582-8 8s3.582 8 8 8zm255.141-16h-13.829c-4.418 0-8 3.582-8 8s3.582 8 8 8h13.829c4.418 0 8-3.582 8-8s-3.582-8-8-8zm-223.432-76.549 9.778 9.778c3.124 3.124 8.189 3.124 11.312 0 3.124-3.124 3.124-8.189 0-11.312l-9.778-9.778c-3.124-3.124-8.189-3.124-11.313 0-3.123 3.123-3.123 8.188.001 11.312zm11.312 180.411 9.778-9.778c3.124-3.124 3.124-8.189 0-11.312-3.124-3.124-8.189-3.124-11.312 0l-9.778 9.778c-3.124 3.124-3.124 8.189 0 11.312 3.123 3.124 8.188 3.124 11.312 0zm169.099-191.724-9.778 9.778c-3.124 3.124-3.124 8.189 0 11.312 3.124 3.124 8.189 3.124 11.312 0l9.778-9.778c3.124-3.124 3.124-8.189 0-11.312-3.123-3.124-8.188-3.124-11.312 0zm-92.549-31.708v13.828c0 4.418 3.582 8 8 8s8-3.582 8-8v-13.828c0-4.418-3.582-8-8-8s-8 3.582-8 8zm0 66.949v60.621c0 3.231 1.916 6.015 4.674 7.277l39.832 22.997c3.814 2.192 8.683.876 10.875-2.938s.876-8.683-2.938-10.875l-36.443-21.04v-56.042c0-4.418-3.582-8-8-8s-8 3.582-8 8z" fill-rule="evenodd"/></svg>