<svg width="32" height="31" viewBox="0 0 32 31" fill="none" xmlns="http://www.w3.org/2000/svg">
<g id="Youtube" clip-path="url(#clip0_101_1304)">
<path id="Vector" d="M0.681641 15.6036C0.681641 7.10665 7.56955 0.21875 16.0664 0.21875C24.5633 0.21875 31.4512 7.10665 31.4512 15.6036C31.4512 24.1005 24.5633 30.9884 16.0664 30.9884C7.56955 30.9884 0.681641 24.1005 0.681641 15.6036Z" fill="#FF0000"/>
<path id="Vector_2" d="M23.9288 11.8041C23.7404 11.0797 23.184 10.5086 22.4782 10.3143C21.198 9.9624 16.0666 9.9624 16.0666 9.9624C16.0666 9.9624 10.9351 9.9624 9.65494 10.315C8.94916 10.5086 8.39274 11.0791 8.20428 11.8041C7.86133 13.1182 7.86133 15.8599 7.86133 15.8599C7.86133 15.8599 7.86133 18.6016 8.20428 19.9157C8.39274 20.6401 8.94916 21.2113 9.65494 21.4055C10.9351 21.7574 16.0666 21.7574 16.0666 21.7574C16.0666 21.7574 21.198 21.7574 22.4782 21.4048C23.184 21.2113 23.7404 20.6407 23.9288 19.9157C24.2718 18.6016 24.2718 15.8599 24.2718 15.8599C24.2718 15.8599 24.2718 13.1182 23.9288 11.8041Z" fill="white"/>
<path id="Vector_3" d="M14.5273 18.6805V13.5522L18.63 16.1164L14.5273 18.6805Z" fill="#FF0000"/>
</g>
<defs>
<clipPath id="clip0_101_1304">
<rect width="30.7696" height="30.7696" fill="white" transform="translate(0.681641 0.21875)"/>
</clipPath>
</defs>
</svg>
